<?xml version="1.0" standalone="no"?>
<!DOCTYPE svg PUBLIC "-//W3C//DTD SVG 20010904//EN"
 "http://www.w3.org/TR/2001/REC-SVG-20010904/DTD/svg10.dtd">
<svg version="1.0" xmlns="http://www.w3.org/2000/svg"
 width="258.000000pt" height="143.000000pt" viewBox="0 0 258.000000 143.000000"
 preserveAspectRatio="xMidYMid meet">

<g transform="translate(0.000000,143.000000) scale(0.100000,-0.100000)"
fill="#000000" stroke="none">
<path d="M160 1381 c0 -12 0 -140 0 -286 0 -146 0 -274 0 -285 0 -16 7 -20 35
-20 l35 0 0 139 c0 92 4 142 11 147 7 4 73 -55 158 -140 l146 -146 113 0 c61
0 112 4 112 8 0 5 -137 142 -305 306 -222 217 -305 292 -305 277z"/>
<path d="M1202 1088 l3 -293 38 -3 37 -3 0 295 0 296 -40 0 -40 0 2 -292z"/>
<path d="M1580 1368 c0 -7 -1 -139 -2 -293 l-3 -280 300 0 300 0 52 27 c73 39
114 78 148 140 24 44 29 64 28 118 0 38 -7 81 -17 104 -27 60 -99 130 -169
162 l-62 29 -287 3 c-233 3 -288 1 -288 -10z m532 -91 c155 -76 171 -296 30
-404 -62 -47 -109 -57 -262 -58 l-135 0 -3 248 -2 249 157 -4 c149 -3 161 -5
215 -31z"/>
<path d="M256 728 c-3 -13 -9 -61 -13 -107 -5 -75 -4 -85 12 -97 10 -8 30 -14
44 -14 l24 0 -21 23 c-17 19 -20 31 -16 84 2 34 9 74 14 88 15 38 13 45 -14
45 -16 0 -26 -7 -30 -22z"/>
<path d="M736 728 c-3 -13 -9 -65 -12 -116 -6 -74 -4 -96 6 -102 20 -12 30 -3
30 29 0 28 16 51 36 51 7 0 15 -18 19 -40 6 -37 20 -58 31 -47 3 3 8 30 11 62
l6 57 -44 -4 -44 -3 3 45 c1 25 5 55 7 68 4 18 1 22 -19 22 -16 0 -26 -7 -30
-22z"/>
<path d="M1647 733 c-9 -11 -20 -33 -23 -50 -7 -33 0 -41 51 -58 20 -7 31 -18
33 -33 5 -37 -15 -52 -69 -52 -67 0 -62 -16 7 -24 65 -7 100 8 110 48 10 41
-4 63 -49 78 -23 7 -43 20 -45 29 -5 25 26 49 61 49 40 0 25 16 -23 25 -28 5
-39 2 -53 -12z"/>
<path d="M574 713 c-10 -49 -13 -53 -33 -53 -11 0 -23 -4 -26 -10 -6 -10 7
-14 34 -10 11 1 13 -12 9 -59 -5 -68 -1 -72 61 -64 52 7 64 23 17 23 -35 0
-36 1 -36 39 0 54 8 71 35 71 13 0 27 5 30 10 4 6 -7 10 -26 10 -29 0 -31 2
-26 29 4 21 2 31 -9 35 -23 9 -23 8 -30 -21z"/>
<path d="M916 725 c-3 -9 0 -18 9 -21 21 -8 47 3 43 19 -7 18 -45 20 -52 2z"/>
<path d="M1025 730 c-4 -7 -3 -16 3 -22 14 -14 47 -6 47 12 0 18 -40 26 -50
10z"/>
<path d="M1863 703 c-6 -29 -14 -39 -31 -41 -25 -4 -25 -27 -1 -27 10 0 15
-17 19 -60 l5 -60 45 3 c25 2 50 8 55 14 7 6 -2 9 -25 6 -34 -3 -35 -2 -38 34
-4 49 12 78 43 78 14 0 25 5 25 10 0 6 -14 10 -30 10 -28 0 -30 3 -28 32 2 23
-2 33 -13 36 -12 2 -19 -8 -26 -35z"/>
<path d="M60 668 c-10 -17 -22 -49 -26 -72 -5 -34 -3 -43 16 -58 18 -14 33
-17 74 -12 73 9 80 18 16 24 l-55 5 1 39 c2 44 38 86 75 86 10 0 19 5 19 10 0
6 -23 10 -50 10 -46 0 -52 -3 -70 -32z"/>
<path d="M1411 661 c-7 -5 -16 -24 -20 -42 -5 -24 -12 -34 -26 -34 -25 0 -30
19 -9 39 24 24 9 32 -21 12 -37 -24 -32 -70 8 -74 23 -3 27 -8 26 -35 -1 -44
-21 -92 -39 -93 -8 -1 -23 -5 -32 -9 -14 -5 -18 -2 -18 15 0 18 -5 21 -37 18
-35 -3 -38 -6 -41 -35 -2 -18 -6 -33 -9 -33 -3 0 -21 16 -40 35 l-34 35 -117
0 -117 0 195 -195 195 -195 3 170 c2 153 8 190 27 160 3 -5 28 7 55 26 37 26
50 42 50 60 0 14 7 57 16 96 16 70 11 95 -15 79z"/>
<path d="M2238 654 c-22 -12 -31 -12 -47 -2 -26 16 -29 12 -37 -55 -5 -41 -3
-61 7 -73 12 -14 14 -14 26 2 7 10 13 30 13 44 0 29 19 49 63 68 27 12 37 32
15 32 -7 -1 -25 -7 -40 -16z"/>
<path d="M403 638 c-56 -62 -49 -98 18 -98 29 0 41 5 49 21 10 17 7 27 -16 60
-15 21 -28 39 -29 39 -1 0 -11 -10 -22 -22z m37 -59 c0 -12 -7 -19 -20 -19
-23 0 -24 4 -9 31 12 23 29 16 29 -12z"/>
<path d="M917 653 c-3 -5 -7 -35 -8 -68 -4 -55 -2 -60 17 -63 19 -3 22 4 31
60 8 46 7 65 -1 70 -14 10 -34 10 -39 1z"/>
<path d="M1017 598 c-6 -69 -4 -78 22 -78 15 0 19 11 25 61 7 68 3 79 -23 79
-15 0 -19 -11 -24 -62z"/>
<path d="M2043 638 c-56 -62 -49 -98 18 -98 57 0 69 29 35 81 -15 21 -28 39
-29 39 -2 0 -13 -10 -24 -22z m37 -59 c0 -12 -7 -19 -20 -19 -23 0 -24 4 -9
31 12 23 29 16 29 -12z"/>
<path d="M2372 637 c-11 -12 -24 -40 -27 -63 -6 -36 -5 -41 20 -52 30 -14 65
-15 92 -4 13 5 6 8 -26 12 -58 6 -62 23 -11 43 34 13 40 20 40 45 0 22 -6 31
-22 36 -36 9 -43 7 -66 -17z m48 -21 c0 -22 -26 -43 -38 -31 -8 8 16 55 28 55
5 0 10 -11 10 -24z"/>
<path d="M1140 630 c-17 -31 -9 -104 12 -108 12 -2 18 7 23 38 6 34 27 60 49
60 3 0 6 -21 8 -47 4 -64 21 -61 32 5 10 61 0 77 -42 61 -17 -6 -29 -6 -36 1
-16 16 -34 12 -46 -10z"/>
<path d="M158 428 c-2 -18 -2 -102 0 -186 l3 -152 34 0 35 0 0 185 0 185 -34
0 c-32 0 -35 -3 -38 -32z"/>
<path d="M1577 453 c-9 -8 -9 -255 -1 -317 l7 -46 251 0 c167 1 277 5 328 14
90 17 185 64 230 115 41 47 77 128 85 191 l6 51 -89 -3 -89 -3 -6 -50 c-12
-96 -66 -171 -155 -212 -59 -27 -222 -41 -337 -29 l-67 8 0 144 0 144 -78 0
c-43 0 -82 -3 -85 -7z"/>
</g>
</svg>
